# AST/ASF file generated using VICON BodyLanguage
# -----------------------------------------------
:version 1.10
:name VICON
:units
  mass 1.0
  length 0.45
  angle deg
:documentation
   .ast/.asf automatically generated from VICON data using
   VICON BodyBuilder and BodyLanguage model FoxedUp or BRILLIANT.MOD
:root
   order TX TY TZ RX RY RZ
   axis XYZ
   position 0 0 0  
   orientation 0 0 0 
:bonedata
  begin
     id 1 
     name lhipjoint
     direction 0.577973 -0.728611 0.367523 
     length 2.48544 
     axis 0 0 0  XYZ
  end
  begin
     id 2 
     name lfemur
     direction 0.34202 -0.939693 0  
     length 7.1921  
     axis 0 0 20  XYZ
    dof rx ry rz
    limits (-160.0 20.0)
           (-70.0 70.0)
           (-60.0 70.0)
  end
  begin
     id 3 
     name ltibia
     direction 0.34202 -0.939693 0   
     length 7.71059   
     axis 0 0 20   XYZ
    dof rx
    limits (-10.0 170.0)
  end
  begin
     id 4 
     name lfoot
     direction 0.089538 -0.246004 0.965124   
     length 2.19909   
     axis -90 7.62852e-016 20   XYZ
    dof rx rz
    limits (-45.0 90.0)
           (-70.0 20.0)
  end
  begin
     id 5 
     name ltoes
     direction 1.53544e-011 -4.21829e-011 1   
     length 1.10116   
     axis -90 7.62852e-016 20   XYZ
    dof rx
    limits (-90.0 20.0)
  end
  begin
     id 6 
     name rhipjoint
     direction -0.554414 -0.743062 0.374812   
     length 2.4371  
     axis 0 0 0  XYZ 
  end
  begin
     id 7 
     name rfemur
     direction -0.34202 -0.939693 0   
     length 7.47254   
     axis 0 0 -20   XYZ
    dof rx ry rz
    limits (-160.0 20.0)
           (-70.0 70.0)
           (-70.0 60.0)
  end
  begin
     id 8 
     name rtibia
     direction -0.34202 -0.939693 0   
     length 7.65855   
     axis 0 0 -20   XYZ
    dof rx
    limits (-10.0 170.0)
 end
 begin
     id 9 
     name rfoot
     direction -0.133779 -0.367555 0.92033   
     length 2.43006  
     axis -90 -7.62852e-016 -20   XYZ
    dof rx rz
    limits (-45.0 90.0)
           (-20.0 70.0)
  end
  begin
     id 10 
     name rtoes
     direction -1.53563e-011 -4.21889e-011 1   
     length 1.19625   
     axis -90 -7.62852e-016 -20   XYZ
    dof rx
    limits (-90.0 20.0)
  end
  begin
     id 11 
     name lowerback
     direction 0.0249066 0.998043 -0.0573585   
     length 2.08485   
     axis 0 0 0   XYZ
    dof rx ry rz
    limits (-20.0 45.0)
           (-30.0 30.0)
           (-30.0 30.0)
  end
  begin
     id 12 
     name upperback
     direction 0.0237884 0.999673 0.00943178   
     length 2.08515   
     axis 0 0 0   XYZ
    dof rx ry rz
    limits (-20.0 45.0)
           (-30.0 30.0)
           (-30.0 30.0)
  end
  begin
     id 13 
     name thorax
     direction 0.0106671 0.999301 0.0358174   
     length 2.09037   
     axis 0 0 0   XYZ
    dof rx ry rz
    limits (-20.0 45.0)
           (-30.0 30.0)
           (-30.0 30.0)
  end
  begin
     id 14 
     name lowerneck
     direction -0.0580016 0.987052 0.149546   
     length 1.84454   
     axis 0 0 0   XYZ
    dof rx ry rz
    limits (-20.0 45.0)
           (-30.0 30.0)
           (-30.0 30.0)
  end
  begin
     id 15 
     name upperneck
     direction 0.079456 0.981963 -0.171567   
     length 1.88141   
     axis 0 0 0   XYZ
    dof rx ry rz
    limits (-20.0 45.0)
           (-30.0 30.0)
           (-30.0 30.0)
  end
  begin
     id 16
     name head
     direction 0.0262167 0.9967 -0.0768276  
     length 1.89541  
     axis 0 0 0   XYZ
    dof rx ry rz
    limits (-20.0 45.0)
           (-30.0 30.0)
           (-30.0 30.0)
  end
  begin
     id 17 
     name lclavicle
     direction 0.946135 0.322134 -0.0325326  
     length 3.949  
     axis 0 0 0   XYZ
    dof ry rz
    limits (-20.0 10.0)
           (0.0 20.0)
  end
  begin
     id 18 
     name lhumerus
     direction 1 -4.48964e-011 1.94005e-028   
     length 5.10995   
     axis 180 -30 -90   XYZ
    dof rx ry rz
    limits (-60.0 90.0)
           (-90.0 90.0)
           (-90.0 90.0)
  end
  begin
     id 19
     name lradius
     direction 1 -4.48976e-011 2.87852e-027   
     length 3.21207   
     axis 180 -30 -90   XYZ
    dof rx
    limits (-10.0 170.0)
  end
  begin
     id 20
     name lwrist
     direction 1 -4.48963e-011 1.9975e-027   
     length 1.60604   
     axis 2.96054e-016 90 90   XYZ
    dof ry
    limits (-180.0 0.0)
 end
  begin
     id 21 
     name lhand
     direction 1 -4.48919e-011 4.00227e-027   
     length 0.63349   
     axis -2.5488e-015 90 90   XYZ
    dof rx rz
    limits (-90.0 90.0)
           (-45.0 45.0)
  end
  begin
     id 22 
     name lfingers
     direction 1 -4.49037e-011 7.9652e-027   
     length 0.510736   
     axis -5.0975e-015 90 90   XYZ
    dof rx
    limits (0.0 90.0)
  end
  begin
     id 23
     name lthumb
     direction 0.707107 -6.34922e-011 0.707107   
     length 0.733318   
     axis -90 45 -4.48553e-014   XYZ
    dof rx rz
    limits (-45.0 45.0)
           (-45.0 45.0)
  end
  begin
     id 24 
     name rclavicle
     direction -0.940085 0.328911 -0.0897654   
     length 3.93848  
     axis 0 0 0   XYZ 
    dof ry rz
    limits (-10.0 20.0)
           (-20.0 0.0)
  end
  begin
     id 25 
     name rhumerus
     direction -1 -4.48958e-011 3.02044e-027  
     length 5.25109   
     axis 180 30 90   XYZ
    dof rx ry rz
    limits (-90.0 60.0)
           (-90.0 90.0)
           (-90.0 90.0)
  end
  begin
     id 26 
     name rradius
     direction -1 -4.4897e-011 9.78352e-028   
     length 3.28364   
     axis 180 30 90   XYZ
    dof rx
    limits (-10.0 170.0)
  end
  begin
     id 27 
     name rwrist
     direction -1 -4.48943e-011 1.99918e-027   
     length 1.64182   
     axis 2.96054e-016 -90 -90   XYZ
    dof ry
    limits (-180.0 0.0)
  end
  begin
     id 28
     name rhand
     direction -1 -4.49024e-011 3.98478e-027   
     length 0.599745   
     axis -2.5488e-015 -90 -90   XYZ
    dof rx rz
    limits (-90.0 90.0)
           (-45.0 45.0)
  end
  begin
     id 29
     name rfingers
     direction -1 -4.48914e-011 8.00621e-027   
     length 0.48353   
     axis -5.0975e-015 -90 -90   XYZ
    dof rx
    limits (0.0 90.0)
  end
  begin
     id 30
     name rthumb
     direction -0.707107 -6.34992e-011 0.707107   
     length 0.694255   
     axis -90 -45 4.48553e-014   XYZ
    dof rx rz
    limits (-45.0 45.0)
           (-45.0 45.0)
  end
:hierarchy
  begin
    root lhipjoint rhipjoint lowerback
    lhipjoint lfemur
    lfemur ltibia
    ltibia lfoot
    lfoot ltoes
    rhipjoint rfemur
    rfemur rtibia
    rtibia rfoot
    rfoot rtoes
    lowerback upperback
    upperback thorax
    thorax lowerneck lclavicle rclavicle
    lowerneck upperneck
    upperneck head
    lclavicle lhumerus
    lhumerus lradius
    lradius lwrist
    lwrist lhand lthumb
    lhand lfingers
    rclavicle rhumerus
    rhumerus rradius
    rradius rwrist
    rwrist rhand rthumb
    rhand rfingers
  end

#!OML:ASF E:\CV Data\Top Level 1\Subject 1\Session 1\player.ASF
:FULLY-SPECIFIED
:DEGREES
420
root 2.12166 23.5679 -10.2946 -49.2758 78.5262 -47.3065
lowerback 5.48365 -3.63455 1.38826
upperback -6.38876 -4.76777 -1.2246
thorax -10.0962 -2.42801 -1.40804
lowerneck 4.52236 -14.9637 -21.654
upperneck -8.30053 -20.5803 19.733
head 1.20893 -10.3159 8.69167
rclavicle 1.70955e-014 1.11319e-014
rhumerus 106.554 -19.6668 -66.6799
rradius 18.4411
rwrist 31.333
rhand 5.75913 -12.6111
rfingers 7.12502
rthumb 31.0938 -39.9947
lclavicle 1.70955e-014 1.11319e-014
lhumerus 87.019 6.25112 38.0901
lradius 35.6922
lwrist 34.4606
lhand -16.8447 16.7919
lfingers 7.12502
lthumb 9.3852 46.563
rfemur -7.84203 3.80646 27.9773
rtibia 30.9883
rfoot 14.0566 -10.295
rtoes 12.662
lfemur -6.41896 -1.3695 -6.69307
ltibia 32.1654
lfoot 10.5229 -3.7328
ltoes 10.4872
421
root 2.07971 23.4757 -10.1955 -52.3644 78.6889 -50.3623
lowerback 5.43152 -3.64127 1.45551
upperback -6.34068 -4.76379 -1.14706
thorax -10.0099 -2.42771 -1.36837
lowerneck 4.68346 -15.079 -21.6324
upperneck -8.6524 -20.7298 19.7777
head 1.11457 -10.3928 8.71217
rclavicle -2.26615e-014 -2.70347e-014
rhumerus 105.931 -20.3942 -65.6954
rradius 18.8225
rwrist 32.0066
rhand 6.54056 -11.5274
rfingers 7.12502
rthumb 31.8383 -38.7656
lclavicle -2.26615e-014 -2.70347e-014
lhumerus 86.0398 7.12479 37.1507
lradius 36.0949
lwrist 34.5479
lhand -16.2674 16.1464
lfingers 7.12502
lthumb 9.94222 45.8916
rfemur -7.70271 3.5802 28.0374
rtibia 31.0331
rfoot 14.237 -10.2055
rtoes 12.5546
lfemur -6.32158 -1.36425 -6.37929
ltibia 32.4612
lfoot 10.8016 -3.693
ltoes 10.378
422
root 2.03829 23.3714 -10.0981 -55.2656 78.8151 -53.2288
lowerback 5.38253 -3.6447 1.51382
upperback -6.29035 -4.75697 -1.07445
thorax -9.92272 -2.42562 -1.32937
lowerneck 4.79283 -15.1944 -21.5907
upperneck -8.95315 -20.8728 19.8184
head 1.03943 -10.465 8.72306
rclavicle -4.09496e-014 9.54166e-015
rhumerus 105.269 -21.1335 -64.7894
rradius 19.2507
rwrist 32.878
rhand 6.91242 -10.2391
rfingers 7.12502
rthumb 32.1923 -37.4063
lclavicle -4.09496e-014 9.54166e-015
lhumerus 85.0245 8.06154 36.1615
lradius 36.496
lwrist 34.6733
lhand -15.7512 15.4599
lfingers 7.12502
lthumb 10.4402 45.1807
rfemur -7.56909 3.36471 28.0439
rtibia 31.0684
rfoot 14.4391 -10.0977
rtoes 12.392
lfemur -6.20293 -1.34752 -6.10616
ltibia 32.7443
lfoot 11.1715 -3.62373
ltoes 10.2918
423
root 1.99742 23.2552 -10.0023 -57.9427 78.9055 -55.8693
lowerback 5.3345 -3.64129 1.56708
upperback -6.23584 -4.74233 -1.00818
thorax -9.83137 -2.41966 -1.29559
lowerneck 4.87286 -15.3059 -21.5292
upperneck -9.24347 -21.0035 19.8687
head 0.968943 -10.5308 8.73302
rclavicle -3.26007e-014 -2.06736e-014
rhumerus 104.603 -21.8843 -63.9294
rradius 19.6645
rwrist 33.4918
rhand 6.88719 -9.01609
rfingers 7.12502
rthumb 32.1683 -36.1881
lclavicle -3.26007e-014 -2.06736e-014
lhumerus 83.9669 9.06206 35.0942
lradius 36.8807
lwrist 34.689
lhand -15.2505 14.7253
lfingers 7.12502
lthumb 10.9231 44.4212
rfemur -7.44262 3.17409 28.0065
rtibia 31.1011
rfoot 14.6515 -9.98407
rtoes 12.1755
lfemur -6.05575 -1.31957 -5.86802
ltibia 32.9985
lfoot 11.6322 -3.55739
ltoes 10.2383
424
root 1.957 23.1268 -9.90742 -60.3583 78.9637 -58.2487
lowerback 5.29082 -3.62773 1.60618
upperback -6.18153 -4.71547 -0.939867
thorax -9.74091 -2.40668 -1.25335
lowerneck 4.94039 -15.4076 -21.4714
upperneck -9.54797 -21.116 19.9392
head 0.89601 -10.5873 8.7517
rclavicle 3.89618e-014 3.18055e-015
rhumerus 103.946 -22.6326 -63.0741
rradius 20.0366
rwrist 33.5453
rhand 6.56095 -8.0399
rfingers 7.12502
rthumb 31.8577 -35.2743
lclavicle 3.89618e-014 3.18055e-015
lhumerus 82.8598 10.1152 33.9627
lradius 37.2157
lwrist 34.4016
lhand -14.7126 13.9332
lfingers 7.12502
lthumb 11.4419 43.601
rfemur -7.32446 3.02364 27.9295
rtibia 31.1335
rfoot 14.8488 -9.89768
rtoes 12.0751
lfemur -5.88118 -1.27956 -5.66066
ltibia 33.2142
lfoot 12.1814 -3.52078
ltoes 10.2235
